<svg width="1200" height="630" viewBox="0 0 1200 630" fill="none" xmlns="http://www.w3.org/2000/svg">
  <defs>
    <linearGradient id="bg" x1="0" y1="0" x2="1" y2="1">
      <stop offset="0%" stop-color="#0A131C"/>
      <stop offset="100%" stop-color="#101F2D"/>
    </linearGradient>
    <radialGradient id="orb" cx="0" cy="0" r="1" gradientUnits="userSpaceOnUse" gradientTransform="translate(870 180) rotate(90) scale(210)">
      <stop stop-color="#8BEFFF" stop-opacity="0.9"/>
      <stop offset="1" stop-color="#20D9FF" stop-opacity="0"/>
    </radialGradient>
    <pattern id="grid" width="28" height="28" patternUnits="userSpaceOnUse">
      <path d="M28 0H0V28" stroke="#2CDCFF" stroke-opacity="0.16"/>
    </pattern>
  </defs>

  <rect width="1200" height="630" fill="url(#bg)"/>
  <rect width="1200" height="630" fill="url(#grid)"/>
  <circle cx="870" cy="180" r="210" fill="url(#orb)"/>

  <g stroke="#36E0FF" stroke-opacity="0.58" stroke-width="3" fill="none">
    <path d="M270 410L460 300L650 410L460 520Z"/>
    <path d="M270 410V230L460 120L460 300"/>
    <path d="M460 300L650 410V230L460 120L270 230"/>
  </g>

  <text x="110" y="220" fill="#EAF3FB" font-family="Space Grotesk, sans-serif" font-size="74" font-weight="600">
    &lt;STUDIO_NAME&gt;
  </text>
  <text x="110" y="300" fill="#EAF3FB" font-family="Space Grotesk, sans-serif" font-size="56" font-weight="500">
    We design websites that feel engineered.
  </text>
  <text x="112" y="372" fill="#20D9FF" font-family="IBM Plex Mono, monospace" font-size="22" letter-spacing="2">
    VECTOR FIRST / PIXEL ACCENTS / HIGH PERFORMANCE
  </text>

  <rect x="70" y="70" width="10" height="10" fill="#20D9FF"/>
  <rect x="80" y="70" width="10" height="10" fill="#20D9FF"/>
  <rect x="70" y="80" width="10" height="10" fill="#20D9FF"/>

  <rect x="1120" y="550" width="10" height="10" fill="#20D9FF"/>
  <rect x="1110" y="550" width="10" height="10" fill="#20D9FF"/>
  <rect x="1120" y="540" width="10" height="10" fill="#20D9FF"/>
</svg>
